# xmcd CD database file
#
# Track frame offsets:
#	150
#	23762
#	40580
#	54990
#	77910
#	94582
#	117312
#	130220
#	153140
#	180300
#	196510
#	216130
#	244807
#	268965
#
# Disc length: 3937 seconds
#
# Revision: 0
# Processed by: cddbd v1.4PL0 Copyright (c) Steve Scherf et al.
# Submitted via: CDex 1.40Release
#
DISCID=ad0f5f0e
DTITLE=Neil Young - Unplugged
DYEAR=1993
DGENRE=Blues
TTITLE0=The Old Laughing Lady
TTITLE1=Mr. Soul
TTITLE2=World On A String
TTITLE3=Pocahontas
TTITLE4=Stringman
TTITLE5=Like A Hurricane
TTITLE6=The Needle And The Damage Done
TTITLE7=Helpless
TTITLE8=Harvest Moon
TTITLE9=Transformer Man
TTITLE10=Unknown Legend
TTITLE11=Look Out For My Love
TTITLE12=Long Time May You Run
TTITLE13=From Hank To Hendrix
EXTD=YEAR: 1993 ID3G: 0
EXTT0=
EXTT1=
EXTT2=
EXTT3=
EXTT4=
EXTT5=
EXTT6=
EXTT7=
EXTT8=
EXTT9=
EXTT10=
EXTT11=
EXTT12=
EXTT13=
PLAYORDER=
